<svg id="Logo" xmlns="http://www.w3.org/2000/svg" width="83.914" height="88.657" viewBox="0 0 83.914 88.657">
  <path id="Path_2086" data-name="Path 2086" d="M1.008-2.457V-3.738a.57.57,0,0,1,.168-.42.57.57,0,0,1,.42-.168H3.234a.57.57,0,0,1,.42.168.57.57,0,0,1,.168.42v.4a.539.539,0,0,0,.189.42l.336.357a.672.672,0,0,0,.42.168H8.652a.672.672,0,0,0,.42-.168l.357-.378A.528.528,0,0,0,9.6-3.36V-5.313a.57.57,0,0,0-.168-.42l-.336-.336a.57.57,0,0,0-.42-.168H3.57a.539.539,0,0,1-.42-.189L1.218-8.358a.545.545,0,0,1-.168-.4V-12.18a.57.57,0,0,1,.168-.42L3.15-14.532a.57.57,0,0,1,.42-.168H9.744a.57.57,0,0,1,.42.168L12.1-12.6a.57.57,0,0,1,.168.42v1.3a.563.563,0,0,1-.179.41.563.563,0,0,1-.409.179H10.017a.563.563,0,0,1-.41-.179.563.563,0,0,1-.178-.41v-.441a.57.57,0,0,0-.168-.42l-.336-.336a.582.582,0,0,0-.42-.189h-3.7a.582.582,0,0,0-.42.189l-.336.336a.582.582,0,0,0-.189.42v1.68a.539.539,0,0,0,.189.42l.336.357a.672.672,0,0,0,.42.168h5.1a.57.57,0,0,1,.42.168l1.932,1.932a.672.672,0,0,1,.168.42V-2.5a.545.545,0,0,1-.168.4L10.29-.126a.5.5,0,0,1-.42.189H3.528a.539.539,0,0,1-.42-.189L1.176-2.058A.545.545,0,0,1,1.008-2.457ZM27.069-.9a.562.562,0,0,1,.031.6.537.537,0,0,1-.514.3H24.675a.535.535,0,0,1-.483-.273L20.643-5.859a.535.535,0,0,0-.483-.273h-1.3a.57.57,0,0,0-.42.168.57.57,0,0,0-.168.42V-.588a.563.563,0,0,1-.179.409.563.563,0,0,1-.41.179h-1.7a.563.563,0,0,1-.41-.179.563.563,0,0,1-.179-.409v-11.8H15.12a.469.469,0,0,1-.347-.137.444.444,0,0,1-.136-.326V-14.3a.444.444,0,0,1,.136-.325.469.469,0,0,1,.347-.137h2.562a.563.563,0,0,1,.41.179.563.563,0,0,1,.179.41v4.809a.58.58,0,0,0,.168.41.553.553,0,0,0,.42.179h1.3a.575.575,0,0,0,.5-.294l3.234-5.4a.575.575,0,0,1,.5-.294H26.25a.559.559,0,0,1,.525.3.575.575,0,0,1,0,.6L23.142-7.707a.564.564,0,0,0,.021.609Zm3.4-13.734h1.7a.58.58,0,0,1,.41.168.553.553,0,0,1,.179.42V-.483a.553.553,0,0,1-.179.42.58.58,0,0,1-.41.168h-1.7a.58.58,0,0,1-.41-.168.553.553,0,0,1-.179-.42V-14.049a.553.553,0,0,1,.179-.42A.58.58,0,0,1,30.471-14.637ZM45.906-2.373a.563.563,0,0,1,.41.179.563.563,0,0,1,.178.41v1.26a.563.563,0,0,1-.178.41.563.563,0,0,1-.41.179H36.834a.563.563,0,0,1-.41-.179.563.563,0,0,1-.178-.41V-12.348h-.273a.491.491,0,0,1-.347-.126.435.435,0,0,1-.136-.336v-1.428a.444.444,0,0,1,.136-.326.469.469,0,0,1,.347-.136h2.562a.563.563,0,0,1,.41.179.563.563,0,0,1,.179.409V-2.961a.57.57,0,0,0,.168.42.57.57,0,0,0,.42.168Zm2.184-.084V-3.738a.57.57,0,0,1,.168-.42.57.57,0,0,1,.42-.168h1.638a.57.57,0,0,1,.42.168.57.57,0,0,1,.168.42v.4a.539.539,0,0,0,.189.42l.336.357a.672.672,0,0,0,.42.168h3.885a.672.672,0,0,0,.42-.168l.357-.378a.528.528,0,0,0,.168-.42V-5.313a.57.57,0,0,0-.168-.42l-.336-.336a.57.57,0,0,0-.42-.168h-5.1a.539.539,0,0,1-.42-.189L48.3-8.358a.545.545,0,0,1-.168-.4V-12.18a.57.57,0,0,1,.168-.42l1.932-1.932a.57.57,0,0,1,.42-.168h6.174a.57.57,0,0,1,.42.168L59.178-12.6a.57.57,0,0,1,.168.42v1.3a.563.563,0,0,1-.179.41.563.563,0,0,1-.409.179H57.1a.563.563,0,0,1-.41-.179.563.563,0,0,1-.179-.41v-.441a.57.57,0,0,0-.168-.42l-.336-.336a.582.582,0,0,0-.42-.189h-3.7a.582.582,0,0,0-.42.189l-.336.336a.582.582,0,0,0-.189.42v1.68a.539.539,0,0,0,.189.42l.336.357a.672.672,0,0,0,.42.168h5.1a.57.57,0,0,1,.42.168l1.932,1.932a.673.673,0,0,1,.168.42V-2.5a.545.545,0,0,1-.168.4L57.372-.126a.5.5,0,0,1-.42.189H50.61a.539.539,0,0,1-.42-.189L48.258-2.058A.545.545,0,0,1,48.09-2.457Zm16.653-9.828H61.509a.57.57,0,0,1-.42-.168.57.57,0,0,1-.168-.42v-1.239a.58.58,0,0,1,.168-.409.553.553,0,0,1,.42-.179h10.5a.553.553,0,0,1,.42.179.58.58,0,0,1,.168.409v1.239a.57.57,0,0,1-.168.42.57.57,0,0,1-.42.168H68.775a.563.563,0,0,0-.41.179.563.563,0,0,0-.179.409V-.525a.58.58,0,0,1-.168.41.553.553,0,0,1-.42.179h-1.68a.553.553,0,0,1-.42-.179.58.58,0,0,1-.168-.41V-11.7a.563.563,0,0,0-.179-.409A.563.563,0,0,0,64.743-12.285ZM77.574-14.7H79.38a.579.579,0,0,1,.326.1.558.558,0,0,1,.221.273L84.882-.735a.582.582,0,0,1-.063.546.546.546,0,0,1-.483.252H82.677a.544.544,0,0,1-.546-.4l-.924-2.5a.542.542,0,0,0-.546-.378H76.293a.542.542,0,0,0-.546.378l-.924,2.5a.544.544,0,0,1-.546.4H72.618a.546.546,0,0,1-.483-.252.582.582,0,0,1-.063-.546l4.956-13.587a.558.558,0,0,1,.221-.273A.579.579,0,0,1,77.574-14.7Zm2.037,9.135a.553.553,0,0,0,.473-.252.565.565,0,0,0,.073-.546l-1.512-4.326a.147.147,0,0,0-.168-.126.165.165,0,0,0-.168.126L76.8-6.342a.529.529,0,0,0,.084.536.587.587,0,0,0,.483.241Z" transform="translate(-1.008 88.552)" fill="#fff"/>
  <g id="Group_1776" data-name="Group 1776" transform="translate(4.231)">
    <path id="Path_480" data-name="Path 480" d="M4812.846,1574.271c39.67-6.276,73.64-31.145,73.819-31.282-8.33,8.294-30.806,25.674-53.336,32.834Z" transform="translate(-4812.846 -1542.613)" fill="#fff"/>
    <path id="Path_481" data-name="Path 481" d="M4942.638,1627.543l-7.467-10.42,13.948-10.542-7.944,10.677,14.155,19.753Z" transform="translate(-4894.954 -1585.37)" fill="#fff"/>
    <path id="Path_484" data-name="Path 484" d="M4833.329,1575.764l7.516,2.493-.083,12.8,7.6-10.3,12.166,4.035-7.467-10.4,13.947-10.523-7.943,10.658,14.154,19.719-23.061-7.647-14.412,19.531.158-24.258-23.062-7.647c39.67-6.266,73.64-31.09,73.819-31.227C4878.335,1551.268,4855.859,1568.617,4833.329,1575.764Z" transform="translate(-4812.846 -1542.613)" fill="#fff"/>
    <path id="Path_487" data-name="Path 487" d="M4891.525,1561.241l-3.586-4.656.354,5.842q-2.44.87-4.96,1.693l.145-22.272,12.617,17.605Q4893.856,1560.36,4891.525,1561.241Z" transform="translate(-4860.158 -1541.848)" fill="#fff"/>
    <g id="Group_1416" data-name="Group 1416" transform="translate(23.174 0)">
      <path id="Path_485" data-name="Path 485" d="M4883.772,1541.848l12.616,17.605q-2.237.907-4.569,1.788l-3.586-4.656Z" transform="translate(-4883.627 -1541.848)" fill="#fff"/>
      <path id="Path_486" data-name="Path 486" d="M4887.939,1556.585l.354,5.842q-2.44.87-4.96,1.693l.145-22.272Z" transform="translate(-4883.332 -1541.848)" fill="#fff"/>
    </g>
    <path id="Path_482" data-name="Path 482" d="M4919.979,1671.556l-23.061-7.661-14.412,19.566,5.013-15.094,7.6-10.322,12.166,4.042Z" transform="translate(-4859.604 -1619.953)" fill="#fff"/>
    <path id="Path_483" data-name="Path 483" d="M4835.749,1670.1l.158-24.3-23.062-7.66,20.483,1.551,7.516,2.5-.083,12.818Z" transform="translate(-4812.846 -1606.589)" fill="#fff"/>
  </g>
</svg>
